control3min_grf.mot
version=1
nRows=15
nColumns 19
inDegrees=yes
endheader
time	1_ground_force_vx	1_ground_force_vy	1_ground_force_vz	1_ground_force_px	1_ground_force_py	1_ground_force_pz	1_ground_torque_x	1_ground_torque_y	1_ground_torque_z	2_ground_force_vx	2_ground_force_vy	2_ground_force_vz	2_ground_force_px	2_ground_force_py	2_ground_force_pz	2_ground_torque_x	2_ground_torque_y	2_ground_torque_z
            2.502500	            0.733629	            2.342612	            0.237508	           -0.233013	            0.005581	           -0.255695	           -0.725449	            0.103415	           -0.323727	           -0.406784	           -1.731161	           20.267206	           -0.232311	            0.006130	           -0.833667	            0.822701	           -4.173966	           -0.354555
            2.503000	            0.321126	            1.261135	            0.188038	           -0.233013	            0.005581	           -0.255695	           -0.816956	            0.214529	           -0.434568	           -0.363319	           -0.809748	           20.129687	           -0.232311	            0.006130	           -0.833667	            0.804127	           -4.221633	           -0.260465
            2.503500	            0.368206	            0.718381	            0.644164	           -0.233013	            0.005581	           -0.255695	           -0.760835	            0.214174	           -0.338745	           -0.407490	           -1.546678	           20.174007	           -0.232311	            0.006130	           -0.833667	            0.766386	           -4.174505	           -0.260280
            2.504000	            0.093130	            1.439194	            0.693795	           -0.233013	            0.005581	           -0.255695	           -0.782144	            0.195720	           -0.388121	           -0.503807	           -0.810758	           20.270531	           -0.232311	            0.006130	           -0.833667	            0.822648	           -4.146011	           -0.241353
            2.504500	           -0.227528	            1.979339	            0.834478	           -0.233013	            0.005581	           -0.255695	           -0.863563	            0.140262	           -0.439455	           -0.590820	           -2.652914	           20.357857	           -0.232311	            0.006130	           -0.833667	            0.898072	           -4.230612	           -0.298239
            2.505000	            0.185679	            1.077304	            1.013013	           -0.233013	            0.005581	           -0.255695	           -0.720758	            0.066861	           -0.497692	           -0.408052	           -1.363367	           20.409305	           -0.232311	            0.006130	           -0.833667	            0.841485	           -4.164714	           -0.279129
            2.505500	            0.505067	            1.260188	            0.416862	           -0.233013	            0.005581	           -0.255695	           -0.732692	            0.103475	           -0.371040	           -0.502457	           -1.179222	           20.316145	           -0.232311	            0.006130	           -0.833667	            0.822623	           -4.145809	           -0.297903
            2.506000	            0.687915	            2.883007	            0.331652	           -0.233013	            0.005581	           -0.255695	           -0.804852	            0.131192	           -0.344183	           -0.219344	           -1.730819	           20.360983	           -0.232311	            0.006130	           -0.833667	            0.822827	           -4.193341	           -0.222671
            2.506500	            0.366822	            1.441606	            0.142841	           -0.233013	            0.005581	           -0.255695	           -0.758745	            0.195992	           -0.414046	           -0.407387	           -1.547515	           20.408648	           -0.232311	            0.006130	           -0.833667	            0.841690	           -4.221430	           -0.279331
            2.507000	            0.321761	            0.899621	            0.415772	           -0.233013	            0.005581	           -0.255695	           -0.769948	            0.195657	           -0.340763	           -0.311132	           -2.282933	           20.171339	           -0.232311	            0.006130	           -0.833667	            0.935574	           -4.211571	           -0.298187
            2.507500	           -0.227330	            0.897745	            0.829840	           -0.233013	            0.005581	           -0.255695	           -0.768783	            0.186095	           -0.345465	           -0.267646	           -1.361688	           20.080748	           -0.232311	            0.006130	           -0.833667	            0.841621	           -4.193341	           -0.203829
            2.508000	           -0.227039	            1.798287	            1.017129	           -0.233013	            0.005581	           -0.255695	           -0.777360	            0.130962	           -0.420905	           -0.265049	           -2.097779	           19.937336	           -0.232311	            0.006130	           -0.833667	            0.879218	           -4.211775	           -0.298163
            2.508500	            0.139821	            0.536695	            0.964952	           -0.233013	            0.005581	           -0.255695	           -0.774488	            0.020127	           -0.386906	           -0.453675	           -1.730996	           20.173370	           -0.232311	            0.006130	           -0.833667	            0.822469	           -4.098680	           -0.260034
            2.509000	            0.367961	            1.439640	            0.601400	           -0.233013	            0.005581	           -0.255695	           -0.815550	            0.130810	           -0.301396	           -0.735316	           -1.548866	           20.455715	           -0.232311	            0.006130	           -0.833667	            0.803880	           -4.155397	           -0.279079
            2.509500	            0.321761	            0.899621	            0.415772	           -0.233013	            0.005581	           -0.255695	           -0.732348	            0.149366	           -0.322256	           -0.315140	           -1.177876	           20.128353	           -0.232311	            0.006130	           -0.833667	            0.785384	           -4.231221	           -0.241640
